<?xml version="1.0" encoding="utf-8" ?>
<svg baseProfile="tiny" height="290px" version="1.2" width="290px" xmlns="http://www.w3.org/2000/svg" xmlns:ev="http://www.w3.org/2001/xml-events" xmlns:xlink="http://www.w3.org/1999/xlink"><defs /><rect fill="#000000" height="10px" width="10px" x="0px" y="0px" /><rect fill="#000000" height="10px" width="10px" x="10px" y="0px" /><rect fill="#000000" height="10px" width="10px" x="20px" y="0px" /><rect fill="#000000" height="10px" width="10px" x="30px" y="0px" /><rect fill="#000000" height="10px" width="10px" x="40px" y="0px" /><rect fill="#000000" height="10px" width="10px" x="50px" y="0px" /><rect fill="#000000" height="10px" width="10px" x="60px" y="0px" /><rect fill="#000000" height="10px" width="10px" x="100px" y="0px" /><rect fill="#000000" height="10px" width="10px" x="120px" y="0px" /><rect fill="#000000" height="10px" width="10px" x="130px" y="0px" /><rect fill="#000000" height="10px" width="10px" x="160px" y="0px" /><rect fill="#000000" height="10px" width="10px" x="190px" y="0px" /><rect fill="#000000" height="10px" width="10px" x="200px" y="0px" /><rect fill="#000000" height="10px" width="10px" x="220px" y="0px" /><rect fill="#000000" height="10px" width="10px" x="230px" y="0px" /><rect fill="#000000" height="10px" width="10px" x="240px" y="0px" /><rect fill="#000000" height="10px" width="10px" x="250px" y="0px" /><rect fill="#000000" height="10px" width="10px" x="260px" y="0px" /><rect fill="#000000" height="10px" width="10px" x="270px" y="0px" /><rect fill="#000000" height="10px" width="10px" x="280px" y="0px" /><rect fill="#000000" height="10px" width="10px" x="0px" y="10px" /><rect fill="#000000" height="10px" width="10px" x="60px" y="10px" /><rect fill="#000000" height="10px" width="10px" x="80px" y="10px" /><rect fill="#000000" height="10px" width="10px" x="100px" y="10px" /><rect fill="#000000" height="10px" width="10px" x="150px" y="10px" /><rect fill="#000000" height="10px" width="10px" x="160px" y="10px" /><rect fill="#000000" height="10px" width="10px" x="170px" y="10px" /><rect fill="#000000" height="10px" width="10px" x="220px" y="10px" /><rect fill="#000000" height="10px" width="10px" x="280px" y="10px" /><rect fill="#000000" height="10px" width="10px" x="0px" y="20px" /><rect fill="#000000" height="10px" width="10px" x="20px" y="20px" /><rect fill="#000000" height="10px" width="10px" x="30px" y="20px" /><rect fill="#000000" height="10px" width="10px" x="40px" y="20px" /><rect fill="#000000" height="10px" width="10px" x="60px" y="20px" /><rect fill="#000000" height="10px" width="10px" x="120px" y="20px" /><rect fill="#000000" height="10px" width="10px" x="150px" y="20px" /><rect fill="#000000" height="10px" width="10px" x="160px" y="20px" /><rect fill="#000000" height="10px" width="10px" x="190px" y="20px" /><rect fill="#000000" height="10px" width="10px" x="200px" y="20px" /><rect fill="#000000" height="10px" width="10px" x="220px" y="20px" /><rect fill="#000000" height="10px" width="10px" x="240px" y="20px" /><rect fill="#000000" height="10px" width="10px" x="250px" y="20px" /><rect fill="#000000" height="10px" width="10px" x="260px" y="20px" /><rect fill="#000000" height="10px" width="10px" x="280px" y="20px" /><rect fill="#000000" height="10px" width="10px" x="0px" y="30px" /><rect fill="#000000" height="10px" width="10px" x="20px" y="30px" /><rect fill="#000000" height="10px" width="10px" x="30px" y="30px" /><rect fill="#000000" height="10px" width="10px" x="40px" y="30px" /><rect fill="#000000" height="10px" width="10px" x="60px" y="30px" /><rect fill="#000000" height="10px" width="10px" x="80px" y="30px" /><rect fill="#000000" height="10px" width="10px" x="90px" y="30px" /><rect fill="#000000" height="10px" width="10px" x="100px" y="30px" /><rect fill="#000000" height="10px" width="10px" x="120px" y="30px" /><rect fill="#000000" height="10px" width="10px" x="130px" y="30px" /><rect fill="#000000" height="10px" width="10px" x="140px" y="30px" /><rect fill="#000000" height="10px" width="10px" x="160px" y="30px" /><rect fill="#000000" height="10px" width="10px" x="170px" y="30px" /><rect fill="#000000" height="10px" width="10px" x="190px" y="30px" /><rect fill="#000000" height="10px" width="10px" x="220px" y="30px" /><rect fill="#000000" height="10px" width="10px" x="240px" y="30px" /><rect fill="#000000" height="10px" width="10px" x="250px" y="30px" /><rect fill="#000000" height="10px" width="10px" x="260px" y="30px" /><rect fill="#000000" height="10px" width="10px" x="280px" y="30px" /><rect fill="#000000" height="10px" width="10px" x="0px" y="40px" /><rect fill="#000000" height="10px" width="10px" x="20px" y="40px" /><rect fill="#000000" height="10px" width="10px" x="30px" y="40px" /><rect fill="#000000" height="10px" width="10px" x="40px" y="40px" /><rect fill="#000000" height="10px" width="10px" x="60px" y="40px" /><rect fill="#000000" height="10px" width="10px" x="90px" y="40px" /><rect fill="#000000" height="10px" width="10px" x="140px" y="40px" /><rect fill="#000000" height="10px" width="10px" x="180px" y="40px" /><rect fill="#000000" height="10px" width="10px" x="190px" y="40px" /><rect fill="#000000" height="10px" width="10px" x="220px" y="40px" /><rect fill="#000000" height="10px" width="10px" x="240px" y="40px" /><rect fill="#000000" height="10px" width="10px" x="250px" y="40px" /><rect fill="#000000" height="10px" width="10px" x="260px" y="40px" /><rect fill="#000000" height="10px" width="10px" x="280px" y="40px" /><rect fill="#000000" height="10px" width="10px" x="0px" y="50px" /><rect fill="#000000" height="10px" width="10px" x="60px" y="50px" /><rect fill="#000000" height="10px" width="10px" x="80px" y="50px" /><rect fill="#000000" height="10px" width="10px" x="90px" y="50px" /><rect fill="#000000" height="10px" width="10px" x="110px" y="50px" /><rect fill="#000000" height="10px" width="10px" x="120px" y="50px" /><rect fill="#000000" height="10px" width="10px" x="140px" y="50px" /><rect fill="#000000" height="10px" width="10px" x="150px" y="50px" /><rect fill="#000000" height="10px" width="10px" x="200px" y="50px" /><rect fill="#000000" height="10px" width="10px" x="220px" y="50px" /><rect fill="#000000" height="10px" width="10px" x="280px" y="50px" /><rect fill="#000000" height="10px" width="10px" x="0px" y="60px" /><rect fill="#000000" height="10px" width="10px" x="10px" y="60px" /><rect fill="#000000" height="10px" width="10px" x="20px" y="60px" /><rect fill="#000000" height="10px" width="10px" x="30px" y="60px" /><rect fill="#000000" height="10px" width="10px" x="40px" y="60px" /><rect fill="#000000" height="10px" width="10px" x="50px" y="60px" /><rect fill="#000000" height="10px" width="10px" x="60px" y="60px" /><rect fill="#000000" height="10px" width="10px" x="80px" y="60px" /><rect fill="#000000" height="10px" width="10px" x="100px" y="60px" /><rect fill="#000000" height="10px" width="10px" x="120px" y="60px" /><rect fill="#000000" height="10px" width="10px" x="140px" y="60px" /><rect fill="#000000" height="10px" width="10px" x="160px" y="60px" /><rect fill="#000000" height="10px" width="10px" x="180px" y="60px" /><rect fill="#000000" height="10px" width="10px" x="200px" y="60px" /><rect fill="#000000" height="10px" width="10px" x="220px" y="60px" /><rect fill="#000000" height="10px" width="10px" x="230px" y="60px" /><rect fill="#000000" height="10px" width="10px" x="240px" y="60px" /><rect fill="#000000" height="10px" width="10px" x="250px" y="60px" /><rect fill="#000000" height="10px" width="10px" x="260px" y="60px" /><rect fill="#000000" height="10px" width="10px" x="270px" y="60px" /><rect fill="#000000" height="10px" width="10px" x="280px" y="60px" /><rect fill="#000000" height="10px" width="10px" x="90px" y="70px" /><rect fill="#000000" height="10px" width="10px" x="100px" y="70px" /><rect fill="#000000" height="10px" width="10px" x="110px" y="70px" /><rect fill="#000000" height="10px" width="10px" x="140px" y="70px" /><rect fill="#000000" height="10px" width="10px" x="150px" y="70px" /><rect fill="#000000" height="10px" width="10px" x="160px" y="70px" /><rect fill="#000000" height="10px" width="10px" x="190px" y="70px" /><rect fill="#000000" height="10px" width="10px" x="0px" y="80px" /><rect fill="#000000" height="10px" width="10px" x="10px" y="80px" /><rect fill="#000000" height="10px" width="10px" x="20px" y="80px" /><rect fill="#000000" height="10px" width="10px" x="30px" y="80px" /><rect fill="#000000" height="10px" width="10px" x="40px" y="80px" /><rect fill="#000000" height="10px" width="10px" x="60px" y="80px" /><rect fill="#000000" height="10px" width="10px" x="70px" y="80px" /><rect fill="#000000" height="10px" width="10px" x="80px" y="80px" /><rect fill="#000000" height="10px" width="10px" x="90px" y="80px" /><rect fill="#000000" height="10px" width="10px" x="110px" y="80px" /><rect fill="#000000" height="10px" width="10px" x="130px" y="80px" /><rect fill="#000000" height="10px" width="10px" x="140px" y="80px" /><rect fill="#000000" height="10px" width="10px" x="150px" y="80px" /><rect fill="#000000" height="10px" width="10px" x="160px" y="80px" /><rect fill="#000000" height="10px" width="10px" x="170px" y="80px" /><rect fill="#000000" height="10px" width="10px" x="200px" y="80px" /><rect fill="#000000" height="10px" width="10px" x="210px" y="80px" /><rect fill="#000000" height="10px" width="10px" x="230px" y="80px" /><rect fill="#000000" height="10px" width="10px" x="250px" y="80px" /><rect fill="#000000" height="10px" width="10px" x="270px" y="80px" /><rect fill="#000000" height="10px" width="10px" x="0px" y="90px" /><rect fill="#000000" height="10px" width="10px" x="20px" y="90px" /><rect fill="#000000" height="10px" width="10px" x="100px" y="90px" /><rect fill="#000000" height="10px" width="10px" x="120px" y="90px" /><rect fill="#000000" height="10px" width="10px" x="130px" y="90px" /><rect fill="#000000" height="10px" width="10px" x="160px" y="90px" /><rect fill="#000000" height="10px" width="10px" x="180px" y="90px" /><rect fill="#000000" height="10px" width="10px" x="190px" y="90px" /><rect fill="#000000" height="10px" width="10px" x="210px" y="90px" /><rect fill="#000000" height="10px" width="10px" x="220px" y="90px" /><rect fill="#000000" height="10px" width="10px" x="230px" y="90px" /><rect fill="#000000" height="10px" width="10px" x="240px" y="90px" /><rect fill="#000000" height="10px" width="10px" x="280px" y="90px" /><rect fill="#000000" height="10px" width="10px" x="10px" y="100px" /><rect fill="#000000" height="10px" width="10px" x="30px" y="100px" /><rect fill="#000000" height="10px" width="10px" x="40px" y="100px" /><rect fill="#000000" height="10px" width="10px" x="50px" y="100px" /><rect fill="#000000" height="10px" width="10px" x="60px" y="100px" /><rect fill="#000000" height="10px" width="10px" x="80px" y="100px" /><rect fill="#000000" height="10px" width="10px" x="100px" y="100px" /><rect fill="#000000" height="10px" width="10px" x="130px" y="100px" /><rect fill="#000000" height="10px" width="10px" x="140px" y="100px" /><rect fill="#000000" height="10px" width="10px" x="150px" y="100px" /><rect fill="#000000" height="10px" width="10px" x="170px" y="100px" /><rect fill="#000000" height="10px" width="10px" x="180px" y="100px" /><rect fill="#000000" height="10px" width="10px" x="210px" y="100px" /><rect fill="#000000" height="10px" width="10px" x="220px" y="100px" /><rect fill="#000000" height="10px" width="10px" x="240px" y="100px" /><rect fill="#000000" height="10px" width="10px" x="30px" y="110px" /><rect fill="#000000" height="10px" width="10px" x="50px" y="110px" /><rect fill="#000000" height="10px" width="10px" x="80px" y="110px" /><rect fill="#000000" height="10px" width="10px" x="120px" y="110px" /><rect fill="#000000" height="10px" width="10px" x="160px" y="110px" /><rect fill="#000000" height="10px" width="10px" x="180px" y="110px" /><rect fill="#000000" height="10px" width="10px" x="190px" y="110px" /><rect fill="#000000" height="10px" width="10px" x="200px" y="110px" /><rect fill="#000000" height="10px" width="10px" x="230px" y="110px" /><rect fill="#000000" height="10px" width="10px" x="250px" y="110px" /><rect fill="#000000" height="10px" width="10px" x="270px" y="110px" /><rect fill="#000000" height="10px" width="10px" x="30px" y="120px" /><rect fill="#000000" height="10px" width="10px" x="60px" y="120px" /><rect fill="#000000" height="10px" width="10px" x="70px" y="120px" /><rect fill="#000000" height="10px" width="10px" x="80px" y="120px" /><rect fill="#000000" height="10px" width="10px" x="90px" y="120px" /><rect fill="#000000" height="10px" width="10px" x="100px" y="120px" /><rect fill="#000000" height="10px" width="10px" x="120px" y="120px" /><rect fill="#000000" height="10px" width="10px" x="130px" y="120px" /><rect fill="#000000" height="10px" width="10px" x="140px" y="120px" /><rect fill="#000000" height="10px" width="10px" x="170px" y="120px" /><rect fill="#000000" height="10px" width="10px" x="180px" y="120px" /><rect fill="#000000" height="10px" width="10px" x="200px" y="120px" /><rect fill="#000000" height="10px" width="10px" x="250px" y="120px" /><rect fill="#000000" height="10px" width="10px" x="260px" y="120px" /><rect fill="#000000" height="10px" width="10px" x="0px" y="130px" /><rect fill="#000000" height="10px" width="10px" x="10px" y="130px" /><rect fill="#000000" height="10px" width="10px" x="30px" y="130px" /><rect fill="#000000" height="10px" width="10px" x="40px" y="130px" /><rect fill="#000000" height="10px" width="10px" x="140px" y="130px" /><rect fill="#000000" height="10px" width="10px" x="160px" y="130px" /><rect fill="#000000" height="10px" width="10px" x="170px" y="130px" /><rect fill="#000000" height="10px" width="10px" x="180px" y="130px" /><rect fill="#000000" height="10px" width="10px" x="190px" y="130px" /><rect fill="#000000" height="10px" width="10px" x="210px" y="130px" /><rect fill="#000000" height="10px" width="10px" x="220px" y="130px" /><rect fill="#000000" height="10px" width="10px" x="230px" y="130px" /><rect fill="#000000" height="10px" width="10px" x="240px" y="130px" /><rect fill="#000000" height="10px" width="10px" x="280px" y="130px" /><rect fill="#000000" height="10px" width="10px" x="10px" y="140px" /><rect fill="#000000" height="10px" width="10px" x="20px" y="140px" /><rect fill="#000000" height="10px" width="10px" x="30px" y="140px" /><rect fill="#000000" height="10px" width="10px" x="50px" y="140px" /><rect fill="#000000" height="10px" width="10px" x="60px" y="140px" /><rect fill="#000000" height="10px" width="10px" x="70px" y="140px" /><rect fill="#000000" height="10px" width="10px" x="90px" y="140px" /><rect fill="#000000" height="10px" width="10px" x="110px" y="140px" /><rect fill="#000000" height="10px" width="10px" x="120px" y="140px" /><rect fill="#000000" height="10px" width="10px" x="140px" y="140px" /><rect fill="#000000" height="10px" width="10px" x="150px" y="140px" /><rect fill="#000000" height="10px" width="10px" x="160px" y="140px" /><rect fill="#000000" height="10px" width="10px" x="170px" y="140px" /><rect fill="#000000" height="10px" width="10px" x="220px" y="140px" /><rect fill="#000000" height="10px" width="10px" x="230px" y="140px" /><rect fill="#000000" height="10px" width="10px" x="240px" y="140px" /><rect fill="#000000" height="10px" width="10px" x="250px" y="140px" /><rect fill="#000000" height="10px" width="10px" x="260px" y="140px" /><rect fill="#000000" height="10px" width="10px" x="10px" y="150px" /><rect fill="#000000" height="10px" width="10px" x="70px" y="150px" /><rect fill="#000000" height="10px" width="10px" x="90px" y="150px" /><rect fill="#000000" height="10px" width="10px" x="100px" y="150px" /><rect fill="#000000" height="10px" width="10px" x="110px" y="150px" /><rect fill="#000000" height="10px" width="10px" x="150px" y="150px" /><rect fill="#000000" height="10px" width="10px" x="160px" y="150px" /><rect fill="#000000" height="10px" width="10px" x="180px" y="150px" /><rect fill="#000000" height="10px" width="10px" x="210px" y="150px" /><rect fill="#000000" height="10px" width="10px" x="220px" y="150px" /><rect fill="#000000" height="10px" width="10px" x="230px" y="150px" /><rect fill="#000000" height="10px" width="10px" x="240px" y="150px" /><rect fill="#000000" height="10px" width="10px" x="270px" y="150px" /><rect fill="#000000" height="10px" width="10px" x="40px" y="160px" /><rect fill="#000000" height="10px" width="10px" x="60px" y="160px" /><rect fill="#000000" height="10px" width="10px" x="70px" y="160px" /><rect fill="#000000" height="10px" width="10px" x="80px" y="160px" /><rect fill="#000000" height="10px" width="10px" x="90px" y="160px" /><rect fill="#000000" height="10px" width="10px" x="110px" y="160px" /><rect fill="#000000" height="10px" width="10px" x="120px" y="160px" /><rect fill="#000000" height="10px" width="10px" x="140px" y="160px" /><rect fill="#000000" height="10px" width="10px" x="150px" y="160px" /><rect fill="#000000" height="10px" width="10px" x="160px" y="160px" /><rect fill="#000000" height="10px" width="10px" x="170px" y="160px" /><rect fill="#000000" height="10px" width="10px" x="200px" y="160px" /><rect fill="#000000" height="10px" width="10px" x="250px" y="160px" /><rect fill="#000000" height="10px" width="10px" x="260px" y="160px" /><rect fill="#000000" height="10px" width="10px" x="0px" y="170px" /><rect fill="#000000" height="10px" width="10px" x="20px" y="170px" /><rect fill="#000000" height="10px" width="10px" x="90px" y="170px" /><rect fill="#000000" height="10px" width="10px" x="100px" y="170px" /><rect fill="#000000" height="10px" width="10px" x="120px" y="170px" /><rect fill="#000000" height="10px" width="10px" x="130px" y="170px" /><rect fill="#000000" height="10px" width="10px" x="140px" y="170px" /><rect fill="#000000" height="10px" width="10px" x="160px" y="170px" /><rect fill="#000000" height="10px" width="10px" x="180px" y="170px" /><rect fill="#000000" height="10px" width="10px" x="190px" y="170px" /><rect fill="#000000" height="10px" width="10px" x="210px" y="170px" /><rect fill="#000000" height="10px" width="10px" x="220px" y="170px" /><rect fill="#000000" height="10px" width="10px" x="230px" y="170px" /><rect fill="#000000" height="10px" width="10px" x="240px" y="170px" /><rect fill="#000000" height="10px" width="10px" x="260px" y="170px" /><rect fill="#000000" height="10px" width="10px" x="280px" y="170px" /><rect fill="#000000" height="10px" width="10px" x="0px" y="180px" /><rect fill="#000000" height="10px" width="10px" x="20px" y="180px" /><rect fill="#000000" height="10px" width="10px" x="30px" y="180px" /><rect fill="#000000" height="10px" width="10px" x="60px" y="180px" /><rect fill="#000000" height="10px" width="10px" x="70px" y="180px" /><rect fill="#000000" height="10px" width="10px" x="80px" y="180px" /><rect fill="#000000" height="10px" width="10px" x="100px" y="180px" /><rect fill="#000000" height="10px" width="10px" x="130px" y="180px" /><rect fill="#000000" height="10px" width="10px" x="140px" y="180px" /><rect fill="#000000" height="10px" width="10px" x="150px" y="180px" /><rect fill="#000000" height="10px" width="10px" x="180px" y="180px" /><rect fill="#000000" height="10px" width="10px" x="210px" y="180px" /><rect fill="#000000" height="10px" width="10px" x="230px" y="180px" /><rect fill="#000000" height="10px" width="10px" x="240px" y="180px" /><rect fill="#000000" height="10px" width="10px" x="260px" y="180px" /><rect fill="#000000" height="10px" width="10px" x="0px" y="190px" /><rect fill="#000000" height="10px" width="10px" x="20px" y="190px" /><rect fill="#000000" height="10px" width="10px" x="40px" y="190px" /><rect fill="#000000" height="10px" width="10px" x="50px" y="190px" /><rect fill="#000000" height="10px" width="10px" x="80px" y="190px" /><rect fill="#000000" height="10px" width="10px" x="90px" y="190px" /><rect fill="#000000" height="10px" width="10px" x="100px" y="190px" /><rect fill="#000000" height="10px" width="10px" x="140px" y="190px" /><rect fill="#000000" height="10px" width="10px" x="150px" y="190px" /><rect fill="#000000" height="10px" width="10px" x="190px" y="190px" /><rect fill="#000000" height="10px" width="10px" x="200px" y="190px" /><rect fill="#000000" height="10px" width="10px" x="230px" y="190px" /><rect fill="#000000" height="10px" width="10px" x="270px" y="190px" /><rect fill="#000000" height="10px" width="10px" x="0px" y="200px" /><rect fill="#000000" height="10px" width="10px" x="30px" y="200px" /><rect fill="#000000" height="10px" width="10px" x="40px" y="200px" /><rect fill="#000000" height="10px" width="10px" x="60px" y="200px" /><rect fill="#000000" height="10px" width="10px" x="80px" y="200px" /><rect fill="#000000" height="10px" width="10px" x="90px" y="200px" /><rect fill="#000000" height="10px" width="10px" x="130px" y="200px" /><rect fill="#000000" height="10px" width="10px" x="170px" y="200px" /><rect fill="#000000" height="10px" width="10px" x="200px" y="200px" /><rect fill="#000000" height="10px" width="10px" x="210px" y="200px" /><rect fill="#000000" height="10px" width="10px" x="220px" y="200px" /><rect fill="#000000" height="10px" width="10px" x="230px" y="200px" /><rect fill="#000000" height="10px" width="10px" x="240px" y="200px" /><rect fill="#000000" height="10px" width="10px" x="260px" y="200px" /><rect fill="#000000" height="10px" width="10px" x="270px" y="200px" /><rect fill="#000000" height="10px" width="10px" x="280px" y="200px" /><rect fill="#000000" height="10px" width="10px" x="80px" y="210px" /><rect fill="#000000" height="10px" width="10px" x="110px" y="210px" /><rect fill="#000000" height="10px" width="10px" x="120px" y="210px" /><rect fill="#000000" height="10px" width="10px" x="140px" y="210px" /><rect fill="#000000" height="10px" width="10px" x="160px" y="210px" /><rect fill="#000000" height="10px" width="10px" x="190px" y="210px" /><rect fill="#000000" height="10px" width="10px" x="200px" y="210px" /><rect fill="#000000" height="10px" width="10px" x="240px" y="210px" /><rect fill="#000000" height="10px" width="10px" x="250px" y="210px" /><rect fill="#000000" height="10px" width="10px" x="260px" y="210px" /><rect fill="#000000" height="10px" width="10px" x="270px" y="210px" /><rect fill="#000000" height="10px" width="10px" x="280px" y="210px" /><rect fill="#000000" height="10px" width="10px" x="0px" y="220px" /><rect fill="#000000" height="10px" width="10px" x="10px" y="220px" /><rect fill="#000000" height="10px" width="10px" x="20px" y="220px" /><rect fill="#000000" height="10px" width="10px" x="30px" y="220px" /><rect fill="#000000" height="10px" width="10px" x="40px" y="220px" /><rect fill="#000000" height="10px" width="10px" x="50px" y="220px" /><rect fill="#000000" height="10px" width="10px" x="60px" y="220px" /><rect fill="#000000" height="10px" width="10px" x="80px" y="220px" /><rect fill="#000000" height="10px" width="10px" x="120px" y="220px" /><rect fill="#000000" height="10px" width="10px" x="150px" y="220px" /><rect fill="#000000" height="10px" width="10px" x="160px" y="220px" /><rect fill="#000000" height="10px" width="10px" x="180px" y="220px" /><rect fill="#000000" height="10px" width="10px" x="190px" y="220px" /><rect fill="#000000" height="10px" width="10px" x="200px" y="220px" /><rect fill="#000000" height="10px" width="10px" x="220px" y="220px" /><rect fill="#000000" height="10px" width="10px" x="240px" y="220px" /><rect fill="#000000" height="10px" width="10px" x="250px" y="220px" /><rect fill="#000000" height="10px" width="10px" x="260px" y="220px" /><rect fill="#000000" height="10px" width="10px" x="0px" y="230px" /><rect fill="#000000" height="10px" width="10px" x="60px" y="230px" /><rect fill="#000000" height="10px" width="10px" x="100px" y="230px" /><rect fill="#000000" height="10px" width="10px" x="110px" y="230px" /><rect fill="#000000" height="10px" width="10px" x="120px" y="230px" /><rect fill="#000000" height="10px" width="10px" x="160px" y="230px" /><rect fill="#000000" height="10px" width="10px" x="180px" y="230px" /><rect fill="#000000" height="10px" width="10px" x="200px" y="230px" /><rect fill="#000000" height="10px" width="10px" x="240px" y="230px" /><rect fill="#000000" height="10px" width="10px" x="270px" y="230px" /><rect fill="#000000" height="10px" width="10px" x="280px" y="230px" /><rect fill="#000000" height="10px" width="10px" x="0px" y="240px" /><rect fill="#000000" height="10px" width="10px" x="20px" y="240px" /><rect fill="#000000" height="10px" width="10px" x="30px" y="240px" /><rect fill="#000000" height="10px" width="10px" x="40px" y="240px" /><rect fill="#000000" height="10px" width="10px" x="60px" y="240px" /><rect fill="#000000" height="10px" width="10px" x="80px" y="240px" /><rect fill="#000000" height="10px" width="10px" x="90px" y="240px" /><rect fill="#000000" height="10px" width="10px" x="100px" y="240px" /><rect fill="#000000" height="10px" width="10px" x="130px" y="240px" /><rect fill="#000000" height="10px" width="10px" x="160px" y="240px" /><rect fill="#000000" height="10px" width="10px" x="170px" y="240px" /><rect fill="#000000" height="10px" width="10px" x="200px" y="240px" /><rect fill="#000000" height="10px" width="10px" x="210px" y="240px" /><rect fill="#000000" height="10px" width="10px" x="220px" y="240px" /><rect fill="#000000" height="10px" width="10px" x="230px" y="240px" /><rect fill="#000000" height="10px" width="10px" x="240px" y="240px" /><rect fill="#000000" height="10px" width="10px" x="260px" y="240px" /><rect fill="#000000" height="10px" width="10px" x="280px" y="240px" /><rect fill="#000000" height="10px" width="10px" x="0px" y="250px" /><rect fill="#000000" height="10px" width="10px" x="20px" y="250px" /><rect fill="#000000" height="10px" width="10px" x="30px" y="250px" /><rect fill="#000000" height="10px" width="10px" x="40px" y="250px" /><rect fill="#000000" height="10px" width="10px" x="60px" y="250px" /><rect fill="#000000" height="10px" width="10px" x="80px" y="250px" /><rect fill="#000000" height="10px" width="10px" x="100px" y="250px" /><rect fill="#000000" height="10px" width="10px" x="110px" y="250px" /><rect fill="#000000" height="10px" width="10px" x="120px" y="250px" /><rect fill="#000000" height="10px" width="10px" x="140px" y="250px" /><rect fill="#000000" height="10px" width="10px" x="190px" y="250px" /><rect fill="#000000" height="10px" width="10px" x="210px" y="250px" /><rect fill="#000000" height="10px" width="10px" x="250px" y="250px" /><rect fill="#000000" height="10px" width="10px" x="260px" y="250px" /><rect fill="#000000" height="10px" width="10px" x="270px" y="250px" /><rect fill="#000000" height="10px" width="10px" x="280px" y="250px" /><rect fill="#000000" height="10px" width="10px" x="0px" y="260px" /><rect fill="#000000" height="10px" width="10px" x="20px" y="260px" /><rect fill="#000000" height="10px" width="10px" x="30px" y="260px" /><rect fill="#000000" height="10px" width="10px" x="40px" y="260px" /><rect fill="#000000" height="10px" width="10px" x="60px" y="260px" /><rect fill="#000000" height="10px" width="10px" x="80px" y="260px" /><rect fill="#000000" height="10px" width="10px" x="90px" y="260px" /><rect fill="#000000" height="10px" width="10px" x="100px" y="260px" /><rect fill="#000000" height="10px" width="10px" x="150px" y="260px" /><rect fill="#000000" height="10px" width="10px" x="160px" y="260px" /><rect fill="#000000" height="10px" width="10px" x="180px" y="260px" /><rect fill="#000000" height="10px" width="10px" x="210px" y="260px" /><rect fill="#000000" height="10px" width="10px" x="220px" y="260px" /><rect fill="#000000" height="10px" width="10px" x="230px" y="260px" /><rect fill="#000000" height="10px" width="10px" x="240px" y="260px" /><rect fill="#000000" height="10px" width="10px" x="250px" y="260px" /><rect fill="#000000" height="10px" width="10px" x="260px" y="260px" /><rect fill="#000000" height="10px" width="10px" x="270px" y="260px" /><rect fill="#000000" height="10px" width="10px" x="0px" y="270px" /><rect fill="#000000" height="10px" width="10px" x="60px" y="270px" /><rect fill="#000000" height="10px" width="10px" x="80px" y="270px" /><rect fill="#000000" height="10px" width="10px" x="90px" y="270px" /><rect fill="#000000" height="10px" width="10px" x="100px" y="270px" /><rect fill="#000000" height="10px" width="10px" x="120px" y="270px" /><rect fill="#000000" height="10px" width="10px" x="160px" y="270px" /><rect fill="#000000" height="10px" width="10px" x="180px" y="270px" /><rect fill="#000000" height="10px" width="10px" x="200px" y="270px" /><rect fill="#000000" height="10px" width="10px" x="220px" y="270px" /><rect fill="#000000" height="10px" width="10px" x="230px" y="270px" /><rect fill="#000000" height="10px" width="10px" x="240px" y="270px" /><rect fill="#000000" height="10px" width="10px" x="250px" y="270px" /><rect fill="#000000" height="10px" width="10px" x="270px" y="270px" /><rect fill="#000000" height="10px" width="10px" x="0px" y="280px" /><rect fill="#000000" height="10px" width="10px" x="10px" y="280px" /><rect fill="#000000" height="10px" width="10px" x="20px" y="280px" /><rect fill="#000000" height="10px" width="10px" x="30px" y="280px" /><rect fill="#000000" height="10px" width="10px" x="40px" y="280px" /><rect fill="#000000" height="10px" width="10px" x="50px" y="280px" /><rect fill="#000000" height="10px" width="10px" x="60px" y="280px" /><rect fill="#000000" height="10px" width="10px" x="80px" y="280px" /><rect fill="#000000" height="10px" width="10px" x="90px" y="280px" /><rect fill="#000000" height="10px" width="10px" x="100px" y="280px" /><rect fill="#000000" height="10px" width="10px" x="130px" y="280px" /><rect fill="#000000" height="10px" width="10px" x="170px" y="280px" /><rect fill="#000000" height="10px" width="10px" x="180px" y="280px" /><rect fill="#000000" height="10px" width="10px" x="190px" y="280px" /><rect fill="#000000" height="10px" width="10px" x="240px" y="280px" /><rect fill="#000000" height="10px" width="10px" x="260px" y="280px" /></svg>